<svg fill="none" height="24" viewBox="0 0 24 24" width="24" xmlns="http://www.w3.org/2000/svg"><path d="m12 22.9899-1.23-1.11c-2.12-1.94-3.87-3.6149-5.25-5.0249s-2.48-2.67-3.3-3.78-1.395-2.115-1.725-3.015c-.33-.90002-.495-1.81002-.495-2.73002 0-1.79999.605-3.30499 1.815-4.51498 1.21-1.21 2.705-1.815 4.485-1.815 1.14 0 2.195.27 3.165.81s1.815 1.31999 2.535 2.33999c.84-1.08 1.73-1.87499 2.67-2.38499s1.95-.765 3.03-.765c1.78 0 3.275.605 4.485 1.815 1.21 1.20999 1.815 2.71499 1.815 4.51498 0 .92-.165 1.83-.495 2.73002-.33.9-.905 1.905-1.725 3.015s-1.92 2.37-3.3 3.78-3.13 3.0849-5.25 5.0249z" fill="#fff"/></svg>